<svg width="40" height="39" viewBox="0 0 40 39" fill="none" xmlns="http://www.w3.org/2000/svg">
<path d="M17.1134 23.8744H24.299L26.398 25.2459H16.7964L12.4872 38.6667C7.72647 36.8062 3.32062 32.4967 1.47233 27.6532C-0.497911 22.9593 -0.497911 17.062 1.51548 12.3483C3.40299 7.50305 7.93616 3.12707 12.761 1.32947C16.5582 -0.255068 21.6391 -0.422864 25.6655 0.824285C30.2864 2.15767 34.6495 5.49453 37.1856 9.85075C40.0228 14.6277 40.8198 20.6982 39.0949 26.1499C38.0058 29.7681 35.7617 33.2329 32.6721 35.7107L27.3686 26.8067L34.7514 30.9556C34.7928 30.9556 34.8142 30.9086 34.7928 30.8654L25.1227 22.4541L37.6296 24.376C37.6728 24.376 37.6906 24.3563 37.6906 24.3343L37.6082 24.2711L25.816 20.1046L38.0704 17.1234C38.1114 17.1234 38.1114 17.0839 38.09 17.062L25.5186 17.8866L35.3619 10.3779C35.3833 10.3362 35.2974 10.3164 35.2778 10.3599L24.2198 16.0082L30.3238 5.15715C30.3238 5.14098 30.3238 5.09571 30.2864 5.11726L22.3109 14.5483L23.8422 2.15803C23.8422 2.13467 23.7972 2.11311 23.7562 2.13467L20.0882 14.1656L16.877 1.77357C16.8556 1.75381 16.8124 1.73189 16.7892 1.77357L17.674 14.6277L10.0997 4.69508C10.0765 4.67173 10.0565 4.69508 10.0351 4.71484L15.7647 15.7067L4.93426 9.7444C4.91464 9.7444 4.87149 9.76775 4.87149 9.78751L14.5038 17.7569L2.20837 16.4483C2.16522 16.4717 2.16522 16.5098 2.20837 16.5295L14.1297 20.0432L2.27291 23.5532C2.24973 23.5712 2.24973 23.6147 2.27291 23.6344L14.5038 22.1979L4.89289 30.4231C4.87149 30.4231 4.85152 30.4648 4.89289 30.4882L5.02198 30.4465L12.7182 26.386L14.5255 23.4896H16.5799L15.1556 22.4757L19.9163 14.7754L17.108 23.8687L17.1134 23.8744Z" fill="#1D6B11"/>
</svg>
